<?xml version="1.0" encoding="UTF-8"?>
<svg xmlns="http://www.w3.org/2000/svg" xmlns:xlink="http://www.w3.org/1999/xlink" width="1800" height="1200" viewBox="0 0 1800 1200">
<title>E911 IVR Azure Services - Teams and MCP Integration</title>
<desc>Azure Government resource and cost-planning architecture derived from MCP_integration.</desc>
<defs>
<marker id="a" markerWidth="10" markerHeight="10" refX="9" refY="3" orient="auto"><path d="M0 0L0 6L9 3z" fill="#334155"/></marker>
<marker id="ab" markerWidth="10" markerHeight="10" refX="9" refY="3" orient="auto"><path d="M0 0L0 6L9 3z" fill="#0078d4"/></marker>
<style>.bg{fill:#f7f9fc}.scope{fill:#fff;stroke:#94a3b8;stroke-width:1.5}.az{fill:#fff;stroke:#0078d4;stroke-width:2}.tm{fill:#faf8ff;stroke:#6264a7;stroke-width:2}.c{fill:#fff;stroke:#cbd5e1;stroke-width:1.3}.p{fill:#fffaf0;stroke:#d97706;stroke-width:1.6;stroke-dasharray:7 5}.t{font:700 27px 'Segoe UI';fill:#0f172a}.s{font:14px 'Segoe UI';fill:#475569}.h{font:700 15px 'Segoe UI';fill:#1e293b}.n{font:700 13px 'Segoe UI';fill:#0f172a;text-anchor:middle}.d{font:11px 'Segoe UI';fill:#475569;text-anchor:middle}.st{font:700 10px 'Segoe UI';text-anchor:middle}.ok{fill:#16794b}.plan{fill:#b45309}.e{fill:none;stroke:#334155;stroke-width:1.5;marker-end:url(#a)}.pr{fill:none;stroke:#0078d4;stroke-width:2.4;marker-end:url(#ab)}.ds{fill:none;stroke:#64748b;stroke-width:1.4;stroke-dasharray:6 5;marker-end:url(#a)}.l{font:10px 'Segoe UI';fill:#334155;text-anchor:middle;paint-order:stroke;stroke:#fff;stroke-width:4px}.th{font:700 11px 'Segoe UI';fill:#0f172a}.td{font:10.5px 'Segoe UI';fill:#334155}.head{fill:#e8f3fb}.alt{fill:#f8fafc}</style>
</defs>
<rect class="bg" width="1800" height="1200"/><text class="t" x="35" y="38">E911 IVR Azure Services - Teams and MCP Integration</text><text class="s" x="35" y="62">MCP_integration reference | Azure Government, USGov Virginia | Resource inventory and cost-estimation view</text>
<!-- Teams integration -->
<rect class="tm" x="30" y="85" width="1740" height="205" rx="4"/><text class="h" x="50" y="110">1. Call ingress and Microsoft Teams integration</text><text class="s" x="50" y="132">Planned for Phase 8. Microsoft 365 licensing and PSTN charges are separate from the Azure estimate.</text>
<path class="pr" d="M190 205H285"/><path class="pr" d="M455 205H550"/><path class="pr" d="M735 205H835"/><path class="pr" d="M1030 205H1130"/><text class="l" x="238" y="195">PSTN</text><text class="l" x="503" y="195">Teams Phone</text><text class="l" x="785" y="195">Teams channel</text><text class="l" x="1080" y="195">calling webhook</text>
<g><rect class="c" x="55" y="155" width="135" height="100" rx="4"/><image x="96" y="164" width="55" height="52" href="architecture-icons/teams-call.svg"/><text class="n" x="123" y="230">PSTN Caller</text><text class="d" x="123" y="248">External actor</text></g>
<g><rect class="c" x="285" y="155" width="170" height="100" rx="4"/><image x="343" y="164" width="55" height="52" href="architecture-icons/teams-call.svg"/><text class="n" x="370" y="230">Teams Phone System</text><text class="d" x="370" y="248">License + PSTN usage</text></g>
<g><rect class="c" x="550" y="155" width="185" height="100" rx="4"/><image x="615" y="164" width="55" height="52" href="architecture-icons/teams-admin.svg"/><text class="n" x="643" y="230">Teams Admin Center</text><text class="d" x="643" y="248">Policy + bot registration</text></g>
<g><rect class="p" x="835" y="150" width="195" height="110" rx="4"/><image x="905" y="157" width="55" height="55" href="architecture-icons/bot-services.svg"/><text class="n" x="933" y="226">Azure Bot Service</text><text class="d" x="933" y="243">S1; Teams channel; global</text><text class="st plan" x="933" y="258">PLANNED / NOT DEPLOYED</text></g>
<g><rect class="c" x="1130" y="150" width="195" height="110" rx="4"/><image x="1200" y="157" width="55" height="55" href="architecture-icons/function-apps.svg"/><text class="n" x="1228" y="226">IVR Function App</text><text class="d" x="1228" y="243">/api/bot-messages</text><text class="st ok" x="1228" y="258">DEPLOYED</text></g>
<g><rect class="p" x="1425" y="150" width="300" height="110" rx="4"/><text class="n" x="1575" y="179">Teams prerequisites</text><text class="d" x="1575" y="199">Entra bot app registration + secret</text><text class="d" x="1575" y="217">Calling enabled; webhook configured</text><text class="d" x="1575" y="235">Gov Bot may require portal setup</text><text class="st plan" x="1575" y="253">PHASE 8 READINESS INPUT</text></g>
<!-- Azure topology -->
<rect class="az" x="30" y="315" width="1740" height="505" rx="4"/><text class="h" x="50" y="342">2. Azure resource group: rg-ivr-Mcp</text><text class="s" x="50" y="363">Official Azure icons. Solid cards are deployed; amber dashed cards are planned or conditional.</text>
<path class="pr" d="M1228 260V385H200"/><path class="pr" d="M300 445H405"/><text class="l" x="352" y="435">HTTPS /mcp + MI token</text><path class="e" d="M500 505V570H750"/><path class="e" d="M200 505V710H750"/><path class="e" d="M955 505V675H750"/><path class="e" d="M955 505V710H1125"/><path class="ds" d="M570 570V530H500"/><path class="ds" d="M570 570V540H200V505"/><path class="ds" d="M1490 505V570"/><path class="ds" d="M1490 700H500V505"/>
<g><rect class="c" x="90" y="385" width="210" height="120" rx="4"/><image x="110" y="405" width="58" height="58" href="architecture-icons/function-apps.svg"/><text class="n" x="225" y="414">IVR Function App</text><text class="d" x="225" y="434">Functions v4; .NET isolated</text><text class="d" x="225" y="453">Y1 Consumption plan</text><text class="d" x="225" y="472">MCP + direct fallback</text><text class="st ok" x="225" y="493">1 APP + 1 PLAN</text></g>
<g><rect class="c" x="405" y="385" width="190" height="120" rx="4"/><image x="425" y="405" width="58" height="58" href="architecture-icons/app-services.svg"/><text class="n" x="525" y="414">MCP Server</text><text class="d" x="525" y="434">Linux App Service; .NET 8</text><text class="d" x="525" y="453">Dedicated B1 plan</text><text class="d" x="525" y="472">5 tools; protected /mcp</text><text class="st ok" x="525" y="493">1 APP + 1 PLAN</text></g>
<g><rect class="c" x="850" y="385" width="210" height="120" rx="4"/><image x="870" y="405" width="58" height="58" href="architecture-icons/app-services.svg"/><text class="n" x="980" y="414">Admin Portal</text><text class="d" x="980" y="434">Linux App Service; .NET 8</text><text class="d" x="980" y="453">B1 shared with simulator</text><text class="d" x="980" y="472">Entra sign-in</text><text class="st ok" x="980" y="493">1 APP; SHARED PLAN</text></g>
<g><rect class="c" x="1120" y="385" width="210" height="120" rx="4"/><image x="1140" y="405" width="58" height="58" href="architecture-icons/app-services.svg"/><text class="n" x="1250" y="414">PSTN Simulator</text><text class="d" x="1250" y="434">Linux App Service; .NET 8</text><text class="d" x="1250" y="453">TeamsBot mode</text><text class="d" x="1250" y="472">Shares Admin B1 plan</text><text class="st ok" x="1250" y="493">1 APP; SHARED PLAN</text></g>
<g><rect class="c" x="1390" y="385" width="200" height="120" rx="4"/><image x="1410" y="405" width="58" height="58" href="architecture-icons/application-insights.svg"/><text class="n" x="1520" y="414">Application Insights</text><text class="d" x="1520" y="434">Workspace based</text><text class="d" x="1520" y="453">Apps + Functions telemetry</text><text class="st ok" x="1520" y="493">1 RESOURCE</text></g>
<g><rect class="c" x="80" y="570" width="150" height="105" rx="4"/><image x="128" y="580" width="54" height="54" href="architecture-icons/speech-services.svg"/><text class="n" x="155" y="646">Azure AI Speech</text><text class="d" x="155" y="664">S0; STT + TTS</text></g>
<g><rect class="c" x="270" y="570" width="150" height="105" rx="4"/><image x="318" y="580" width="54" height="54" href="architecture-icons/azure-openai.svg"/><text class="n" x="345" y="646">Azure OpenAI</text><text class="d" x="345" y="664">S0; GPT-4.1 Standard</text></g>
<g><rect class="c" x="495" y="570" width="150" height="105" rx="4"/><image x="543" y="580" width="54" height="54" href="architecture-icons/key-vaults.svg"/><text class="n" x="570" y="646">Azure Key Vault</text><text class="d" x="570" y="664">Standard; RBAC</text></g>
<g><rect class="c" x="700" y="570" width="250" height="150" rx="4"/><image x="720" y="590" width="60" height="60" href="architecture-icons/cosmos-db.svg"/><text class="n" x="850" y="600">Azure Cosmos DB</text><text class="d" x="850" y="620">NoSQL serverless; Session</text><text class="d" x="825" y="652">IvrDatabase: 12 containers</text><text class="d" x="825" y="671">Config, routing, integrations</text><text class="d" x="825" y="690">Logs/events: 90-day TTL</text><text class="d" x="825" y="709">RU + storage cost driver</text></g>
<g><rect class="c" x="1050" y="570" width="210" height="130" rx="4"/><image x="1070" y="590" width="58" height="58" href="architecture-icons/storage-accounts.svg"/><text class="n" x="1175" y="600">Storage Account</text><text class="d" x="1175" y="620">StorageV2; Standard LRS</text><text class="d" x="1175" y="639">Functions runtime storage</text><text class="d" x="1175" y="658">Private ivr-prompts blob</text><text class="d" x="1175" y="677">TLS 1.2</text></g>
<g><rect class="c" x="1390" y="570" width="200" height="105" rx="4"/><image x="1410" y="585" width="55" height="55" href="architecture-icons/log-analytics.svg"/><text class="n" x="1520" y="596">Log Analytics</text><text class="d" x="1520" y="616">PerGB2018</text><text class="d" x="1520" y="635">30-day retention</text><text class="st ok" x="1520" y="662">1 WORKSPACE</text></g>
<g><rect class="c" x="1390" y="700" width="200" height="95" rx="4"/><image x="1410" y="715" width="52" height="52" href="architecture-icons/managed-identities.svg"/><text class="n" x="1520" y="723">Managed Identities</text><text class="d" x="1520" y="743">Function, Admin, MCP</text><text class="d" x="1520" y="762">KV role + MCP token</text><text class="d" x="1520" y="781">No direct resource charge</text></g>
<!-- Cost inventory -->
<rect class="scope" x="30" y="845" width="1740" height="325" rx="4"/><text class="h" x="50" y="872">3. Cost-estimation inventory</text><text class="s" x="50" y="893">Enter Azure Government prices and expected usage later; no price assumptions are embedded.</text>
<rect class="head" x="50" y="915" width="830" height="28"/><text class="th" x="62" y="933">Azure resource</text><text class="th" x="280" y="933">Qty</text><text class="th" x="330" y="933">SKU / status</text><text class="th" x="540" y="933">Primary billing input</text>
<rect class="alt" x="50" y="943" width="830" height="27"/><text class="td" x="62" y="961">Function hosting plan</text><text class="td" x="288" y="961">1</text><text class="td" x="330" y="961">Y1 / deployed</text><text class="td" x="540" y="961">Executions, GB-s, bandwidth</text>
<text class="td" x="62" y="988">Linux App Service plans</text><text class="td" x="288" y="988">2</text><text class="td" x="330" y="988">B1 / deployed</text><text class="td" x="540" y="988">Instance-hours (2 x 730/month)</text>
<rect class="alt" x="50" y="997" width="830" height="27"/><text class="td" x="62" y="1015">Linux Web Apps</text><text class="td" x="288" y="1015">3</text><text class="td" x="330" y="1015">MCP, Admin, Simulator</text><text class="td" x="540" y="1015">Compute included in plans</text>
<text class="td" x="62" y="1042">Cosmos DB account</text><text class="td" x="288" y="1042">1</text><text class="td" x="330" y="1042">Serverless / deployed</text><text class="td" x="540" y="1042">RU, storage, backup</text>
<rect class="alt" x="50" y="1051" width="830" height="27"/><text class="td" x="62" y="1069">Storage / Key Vault</text><text class="td" x="288" y="1069">1 ea.</text><text class="td" x="330" y="1069">LRS + Standard / deployed</text><text class="td" x="540" y="1069">Capacity, ops, egress, secrets</text>
<text class="td" x="62" y="1096">Azure Bot Service</text><text class="td" x="288" y="1096">1</text><text class="td" x="330" y="1096">S1 / planned</text><text class="td" x="540" y="1096">Messages / channel pricing</text>
<rect class="alt" x="50" y="1105" width="830" height="27"/><text class="td" x="62" y="1123">Managed identities / app registrations</text><text class="td" x="288" y="1123">3+</text><text class="td" x="330" y="1123">Entra / mixed</text><text class="td" x="540" y="1123">Usually no direct resource charge</text>
<rect class="head" x="920" y="915" width="830" height="28"/><text class="th" x="932" y="933">Azure or adjacent service</text><text class="th" x="1150" y="933">Qty</text><text class="th" x="1200" y="933">SKU / status</text><text class="th" x="1410" y="933">Primary billing input</text>
<rect class="alt" x="920" y="943" width="830" height="27"/><text class="td" x="932" y="961">Azure AI Speech</text><text class="td" x="1158" y="961">1</text><text class="td" x="1200" y="961">S0 / deployed</text><text class="td" x="1410" y="961">Audio hours, TTS characters</text>
<text class="td" x="932" y="988">Azure OpenAI</text><text class="td" x="1158" y="988">1</text><text class="td" x="1200" y="988">GPT-4.1 Standard / deployed</text><text class="td" x="1410" y="988">Input and output tokens</text>
<rect class="alt" x="920" y="997" width="830" height="27"/><text class="td" x="932" y="1015">App Insights / Log Analytics</text><text class="td" x="1158" y="1015">1 ea.</text><text class="td" x="1200" y="1015">Workspace; 30 days</text><text class="td" x="1410" y="1015">GB ingested and retained</text>
<text class="td" x="932" y="1042">Microsoft Teams Phone</text><text class="td" x="1158" y="1042">TBD</text><text class="td" x="1200" y="1042">M365 / planned</text><text class="td" x="1410" y="1042">Users, numbers, PSTN minutes</text>
<rect class="alt" x="920" y="1051" width="830" height="27"/><text class="td" x="932" y="1069">Data transfer</text><text class="td" x="1158" y="1069">N/A</text><text class="td" x="1200" y="1069">Azure Gov / variable</text><text class="td" x="1410" y="1069">Outbound GB, cross-region traffic</text>
<text class="td" x="932" y="1096">Azure Communication Services</text><text class="td" x="1158" y="1096">0</text><text class="td" x="1200" y="1096">Excluded from MCP path</text><text class="td" x="1410" y="1096">Do not include in current estimate</text>
<rect class="alt" x="920" y="1105" width="830" height="27"/><text class="td" x="932" y="1123">Usage inputs still needed</text><text class="td" x="1158" y="1123">-</text><text class="td" x="1200" y="1123">Calls, duration, tokens, data</text><text class="td" x="1410" y="1123">Use Azure Gov pricing/calculator</text>
<text class="s" x="50" y="1155">Official Microsoft Azure and Microsoft 365 architecture icons. Open this SVG directly in Visio; retain the architecture-icons folder beside it.</text>
</svg>
